<?xml version="1.0" standalone="no"?>
<!DOCTYPE svg PUBLIC "-//W3C//DTD SVG 20010904//EN"
 "http://www.w3.org/TR/2001/REC-SVG-20010904/DTD/svg10.dtd">
<svg version="1.0" xmlns="http://www.w3.org/2000/svg"
 width="700.000000pt" height="700.000000pt" viewBox="0 0 700.000000 700.000000"
 preserveAspectRatio="xMidYMid meet">
<metadata>
Created by potrace 1.11, written by Peter Selinger 2001-2013
</metadata>
<g transform="translate(0.000000,700.000000) scale(0.100000,-0.100000)"
fill="#000000" stroke="none">
<path d="M1487 5946 c-50 -15 -100 -56 -122 -102 -16 -35 -18 -78 -17 -538 0
-276 -2 -504 -4 -508 -2 -3 -88 76 -189 178 -102 101 -187 184 -189 184 -3 0
-131 -127 -286 -282 l-281 -281 473 -474 473 -473 1 -373 c1 -308 5 -384 18
-436 40 -155 151 -296 291 -367 l75 -39 0 -272 c0 -153 -4 -273 -9 -273 -5 0
-36 -20 -68 -44 -213 -157 -240 -467 -56 -662 178 -189 491 -180 656 20 75 91
103 164 106 279 5 151 -81 311 -206 384 l-43 25 0 273 0 272 66 33 c36 17 94
59 130 92 35 34 67 59 69 57 2 -2 103 -102 223 -222 l219 -219 -114 -281 c-63
-155 -142 -349 -175 -432 -74 -181 -82 -214 -68 -266 13 -48 64 -107 107 -125
52 -22 120 -18 168 11 53 31 64 48 121 187 185 454 219 538 234 575 l16 43
197 -198 197 -197 565 565 c310 310 566 562 568 560 2 -3 138 -333 301 -735
163 -401 304 -741 314 -755 65 -88 211 -92 289 -8 29 31 50 94 46 138 -2 30
-41 137 -88 245 -7 17 -47 116 -89 220 -42 105 -80 199 -85 210 -30 68 -46
106 -101 245 -34 85 -68 169 -75 185 -12 27 -191 466 -214 525 -9 24 36 71
830 865 l840 841 -281 279 c-154 154 -285 279 -292 277 -6 -2 -89 -82 -185
-178 -95 -96 -175 -169 -177 -162 -2 7 -13 64 -25 125 -20 101 -51 214 -84
298 -29 71 -109 225 -132 253 -89 106 -266 78 -320 -51 -26 -64 -20 -108 34
-215 106 -211 146 -373 145 -592 0 -239 41 -174 -350 -565 l-342 -342 -83 206
c-45 113 -85 211 -89 216 -4 6 -12 25 -18 43 -11 31 -9 36 35 90 138 170 161
387 61 590 -47 96 -135 185 -233 236 l-60 31 0 335 c-1 376 0 371 -78 434 -31
25 -49 31 -100 34 -55 3 -67 0 -108 -26 -31 -20 -53 -45 -68 -74 -20 -43 -21
-57 -21 -374 l0 -329 -65 -34 c-211 -109 -328 -355 -279 -589 17 -83 71 -193
123 -251 l39 -43 -49 -122 c-28 -66 -54 -130 -59 -141 -5 -11 -46 -110 -90
-220 -45 -110 -83 -202 -85 -204 -11 -10 -151 97 -249 192 -80 77 -117 96
-187 94 -43 -2 -65 -8 -97 -31 -76 -52 -105 -163 -63 -244 42 -80 254 -258
437 -368 14 -8 16 -15 8 -25 -6 -8 -23 -47 -38 -86 -15 -40 -30 -73 -32 -73
-2 0 -150 146 -329 325 l-325 325 0 1080 c0 1071 0 1081 -21 1124 -53 114
-211 142 -300 54 -62 -62 -59 -15 -59 -988 l0 -890 -190 190 -190 190 -2 713
-3 713 -28 42 c-45 69 -131 101 -210 78z m4784 -1112 l236 -235 -805 -805
c-443 -443 -808 -801 -812 -797 -13 15 -70 166 -65 173 3 4 35 26 72 48 163
99 372 299 479 459 81 121 79 117 128 218 83 173 132 329 151 491 4 33 9 68
11 79 3 11 4 74 4 140 l1 120 176 177 c98 98 180 175 183 173 3 -3 111 -111
241 -241z m-5109 49 l186 -188 0 -480 0 -480 -429 429 c-236 236 -429 432
-429 434 0 10 465 472 475 472 6 0 94 -84 197 -187z m2935 -56 c39 -15 98 -68
118 -107 9 -16 17 -53 19 -82 14 -195 -207 -311 -357 -187 -123 102 -97 301
48 369 45 22 123 25 172 7z m-1989 -1370 l-3 -478 -187 187 -188 187 0 481 0
481 190 -190 190 -190 -2 -478z m3111 747 c-40 -114 -77 -188 -147 -294 -68
-103 -221 -259 -322 -329 l-75 -53 -27 59 c-15 32 -27 65 -28 73 0 14 620 643
627 636 2 -2 -11 -43 -28 -92z m-1157 -173 c9 -25 63 -161 121 -302 58 -141
108 -265 111 -276 8 -26 -34 -72 -80 -88 -53 -18 -304 -18 -403 0 -46 8 -86
17 -89 20 -4 3 172 449 233 590 7 17 19 47 26 67 10 30 17 36 38 36 22 -1 29
-9 43 -47z m-955 -1143 c-13 -28 -237 -580 -256 -630 -5 -15 -47 22 -219 194
-116 117 -215 216 -218 220 -3 4 6 31 20 62 50 106 56 155 56 501 l0 320 317
-317 316 -317 -16 -33z m-1082 84 c68 -72 69 -73 55 -100 -9 -14 -35 -40 -58
-56 -36 -26 -52 -30 -103 -30 -50 1 -67 6 -101 30 -23 16 -51 48 -64 74 -20
40 -22 60 -24 209 l-1 166 113 -110 c62 -61 144 -143 183 -183z m2510 -107
c36 -87 65 -162 65 -166 0 -6 -1034 -1044 -1087 -1092 -19 -17 -25 -12 -200
164 l-181 181 50 121 c27 67 88 217 135 332 47 116 87 214 90 218 3 5 24 -9
47 -32 l41 -41 208 207 207 207 128 2 c70 1 143 5 162 8 19 2 55 8 80 11 25 3
77 14 115 24 39 10 71 17 72 16 2 -1 32 -73 68 -160z m-895 144 c25 -6 50 -12
55 -13 6 -2 30 -6 55 -10 50 -8 84 -14 87 -15 8 -4 -335 -336 -343 -334 -6 2
-21 18 -34 34 l-22 31 63 159 c43 106 69 159 79 159 8 0 35 -5 60 -11z m-1657
-1353 c98 -42 140 -149 95 -244 -46 -96 -168 -128 -257 -69 -48 32 -81 92 -81
147 0 122 133 213 243 166z"/>
</g>
</svg>
